<svg height="16" width="16" xmlns="http://www.w3.org/2000/svg"><path d="m1.3333335 6.9999996a.66666667.66666667 0 0 0 -.66666678.6666667v6.6666667a.66666667.66666667 0 0 0 .66666678.666667h8a.66666667.66666667 0 0 0 .6666665-.666667v-4.6666667a.66666667.66666667 0 0 0 -.6666665-.6666667h-2.6666667a.66666667.66666667 0 0 1 -.6666667-.6666667v-.6666666a.66666667.66666667 0 0 0 -.6666666-.6666667z" fill="#e0e0e0" stroke-width=".666667"/><g transform="matrix(.25638149 -.12466301 .12466301 .25638149 2.926243 3.72144)"><ellipse cx="8.828" cy="18" fill="#f5f8fa" rx="7.953" ry="13.281"/><path d="m8.828 32.031c-4.88 0-8.703-6.163-8.703-14.031s3.823-14.031 8.703-14.031 8.703 6.163 8.703 14.031-3.823 14.031-8.703 14.031zm0-26.562c-3.972 0-7.203 5.621-7.203 12.531s3.231 12.531 7.203 12.531 7.203-5.621 7.203-12.531-3.231-12.531-7.203-12.531z" fill="#e1e8ed"/><circle cx="6.594" cy="18" fill="#8899a6" r="4.96"/><circle cx="6.594" cy="18" fill="#292f33" r="3.565"/><circle cx="7.911" cy="15.443" fill="#f5f8fa" r="1.426"/><ellipse cx="27.233999" cy="18" fill="#f5f8fa" rx="7.953" ry="13.281"/><path d="m27.234 32.031c-4.88 0-8.703-6.163-8.703-14.031s3.823-14.031 8.703-14.031 8.704 6.163 8.704 14.031-3.824 14.031-8.704 14.031zm0-26.562c-3.972 0-7.203 5.622-7.203 12.531 0 6.91 3.231 12.531 7.203 12.531s7.204-5.621 7.204-12.531-3.232-12.531-7.204-12.531z" fill="#e1e8ed"/><circle cx="25" cy="18" fill="#8899a6" r="4.96"/><circle cx="25" cy="18" fill="#292f33" r="3.565"/><circle cx="26.316999" cy="15.443" fill="#f5f8fa" r="1.426"/></g></svg>